:SAMPLES-PER-SECOND 30
:FULLY-SPECIFIED
:DEGREES
514
root  -56.6435 33.6554 47.1523 -177.191 5.77431 175.922
RightUpLeg  -28.2938 -19.9633 -7.25975
RightLeg  47.9589 -1.96869 -1.96058
RightFoot  -7.43919 0.0014887 0.58645
RightToes  -22.907 -0.0982499 -0.199775
Spine  -0.537256 1.07719 0.695463
Spine1  -1.10815 2.31297 1.93096
HEad  -56.7971 -11.7209 -5.32317
LeftShoulder1  -1.94126e-019 -3.10601e-018 -2.51263e-017
LeftArm  -17.2927 24.1825 -77.3912
LeftForeArm  32.8985 -8.93041 -1.56341
LeftHand  -0.394068 -0.603361 7.74326
RightShoulder  -4.96962e-017 0 -2.36833e-017
RightArm  -34.9088 -6.96924 51.2303
RightForeArm  39.586 31.0163 4.55383
RightHand  -0.202196 -3.72503 -13.2965
LeftUpLeg  -7.93657 0.608525 -2.23451
LeftLeg  25.067 6.68853 2.60778
LeftFoot  -8.2726 -0.0765469 -0.896922
LeftToes  -48.2264 2.40056e-006 -7.68412e-008
515
root  -56.144 33.5994 47.0754 -177.517 3.40208 176.146
RightUpLeg  -23.1096 -17.5687 -8.62662
RightLeg  46.703 -2.62972 -2.49008
RightFoot  -9.37231 0.0224074 0.840393
RightToes  -18.4068 -0.0727564 -0.16389
Spine  -0.606398 1.03135 0.460892
Spine1  -1.24662 2.23882 1.50179
HEad  -57.2913 -12.6366 -4.38291
LeftShoulder1  -1.94126e-019 -3.10601e-018 -2.51263e-017
LeftArm  -20.0928 23.7148 -75.8479
LeftForeArm  36.1572 -5.34689 -0.924394
LeftHand  -0.412953 0.399392 9.64162
RightShoulder  -4.96962e-017 0 -2.36833e-017
RightArm  -34.9294 -6.97806 52.1244
RightForeArm  43.9677 35.2696 5.34435
RightHand  -0.283485 -3.34737 -15.5842
LeftUpLeg  -7.94752 0.719102 -0.763446
LeftLeg  25.7078 6.09215 2.45465
LeftFoot  -8.2447 -0.0690958 -0.797144
LeftToes  -49.6373 2.40056e-006 -7.68412e-008
516
root  -55.5512 33.4836 46.9406 -177.763 0.563263 176.665
RightUpLeg  -17.0221 -17.5239 -8.71072
RightLeg  42.3108 -4.12321 -3.31596
RightFoot  -9.88671 0.0516647 1.17368
RightToes  -17.2273 -0.0665476 -0.154164
Spine  -0.742433 0.821141 0.352593
Spine1  -1.5148 1.83086 1.31795
HEad  -57.2086 -13.2449 -4.06183
LeftShoulder1  -1.94126e-019 -3.10601e-018 -2.51263e-017
LeftArm  -21.1365 24.1892 -74.1575
LeftForeArm  35.6693 -3.80416 -0.654914
LeftHand  -0.370521 1.57039 11.1712
RightShoulder  -4.96962e-017 0 -2.36833e-017
RightArm  -34.6452 -7.61421 53.5494
RightForeArm  44.7023 39.0319 6.29214
RightHand  -0.253749 -3.68461 -16.6106
LeftUpLeg  -8.69519 0.707995 1.12869
LeftLeg  27.3924 3.77277 1.6512
LeftFoot  -8.21864 -0.0429255 -0.435957
LeftToes  -52.0233 2.40056e-006 -7.68412e-008
517
root  -54.8406 33.2851 46.6799 -178.267 -1.21997 177.212
RightUpLeg  -10.4424 -19.1402 -8.18555
RightLeg  34.6354 -4.12159 -2.48296
RightFoot  -13.8134 0.102157 1.41456
RightToes  -30.3289 -0.146192 -0.254246
Spine  -0.766865 0.969104 0.156565
Spine1  -1.55841 2.1244 0.950822
HEad  -57.453 -13.8472 -3.206
LeftShoulder1  -1.94126e-019 -3.10601e-018 -2.51263e-017
LeftArm  -19.3166 25.1506 -72.0664
LeftForeArm  31.7238 -4.13681 -0.718934
LeftHand  -0.302465 2.3294 11.2477
RightShoulder  -4.96962e-017 0 -2.36833e-017
RightArm  -34.9031 -8.61778 55.9519
RightForeArm  43.1326 41.8858 7.20766
RightHand  -0.242992 -3.70953 -16.0933
LeftUpLeg  -9.18875 1.23614 3.243
LeftLeg  29.5882 1.61769 0.781088
LeftFoot  -8.44577 -0.0198105 -0.106791
LeftToes  -54.5853 2.40056e-006 -7.68412e-008
518
root  -54.0606 33.0792 46.5493 -178.849 -2.85443 179.341
RightUpLeg  -9.65569 -23.482 -5.56046
RightLeg  35.5115 -2.28011 -1.43121
RightFoot  -14.9481 0.0510917 0.948137
RightToes  -26.2281 -0.118828 -0.224915
Spine  -0.572534 1.19598 0.572872
Spine1  -1.16703 2.6276 1.70267
HEad  -58.8186 -14.3716 -2.25189
LeftShoulder1  -1.94126e-019 -3.10601e-018 -2.51263e-017
LeftArm  -20.9563 26.2867 -71.0664
LeftForeArm  30.625 -5.95586 -1.04051
LeftHand  -0.292932 2.21696 10.5044
RightShoulder  -4.96962e-017 0 -2.36833e-017
RightArm  -34.3954 -8.67477 58.1644
RightForeArm  40.8778 41.3801 7.17772
RightHand  -0.250374 -3.59213 -15.5225
LeftUpLeg  -10.7407 0.785586 6.87779
LeftLeg  33.2861 1.82933 1.03392
LeftFoot  -9.13282 -0.0275522 -0.18346
LeftToes  -54.2454 2.40056e-006 -7.68412e-008
519
root  -53.299 32.9134 46.4275 -179.133 -2.52423 -178.881
RightUpLeg  -10.3673 -25.134 -3.06941
RightLeg  37.4976 -0.965419 -0.666464
RightFoot  -14.6008 -0.000933372 0.542943
RightToes  -27.7898 -0.129001 -0.236315
Spine  -0.548995 1.81639 1.00472
Spine1  -1.07828 3.87748 2.55701
HEad  -58.9732 -13.9833 -2.51526
LeftShoulder1  -1.94126e-019 -3.10601e-018 -2.51263e-017
LeftArm  -24.7277 28.2039 -71.4415
LeftForeArm  32.6016 -7.6793 -1.34204
LeftHand  -0.354731 1.35176 10.1286
RightShoulder  -4.96962e-017 0 -2.36833e-017
RightArm  -31.3926 -8.26296 60.1288
RightForeArm  40.3961 39.0795 6.53997
RightHand  -0.265893 -3.47419 -15.5271
LeftUpLeg  -11.7484 1.3564 10.0096
LeftLeg  36.0067 3.86048 2.43383
LeftFoot  -9.17238 -0.0593251 -0.578043
LeftToes  -51.6224 2.40056e-006 -7.68412e-008
520
root  -52.5239 32.7491 46.2146 -179.782 -2.38951 -177.998
RightUpLeg  -8.44837 -26.9734 -1.80803
RightLeg  36.3456 0.62856 0.384756
RightFoot  -16.1471 -0.0712873 0.0363978
RightToes  -28.191 -0.131664 -0.239198
Spine  -0.392727 1.85375 1.09971
Spine1  -0.740821 3.9472 2.77693
HEad  -59.9561 -12.2682 -1.72599
LeftShoulder1  -1.94126e-019 -3.10601e-018 -2.51263e-017
LeftArm  -25.9973 30.9608 -72.0918
LeftForeArm  31.2211 -9.88013 -1.73259
LeftHand  -0.361488 1.31424 10.2333
RightShoulder  -4.96962e-017 0 -2.36833e-017
RightArm  -26.5965 -6.22699 62.9291
RightForeArm  44.7891 34.6913 5.15823
RightHand  -0.49889 -1.20205 -13.7529
LeftUpLeg  -11.5647 1.50274 12.1879
LeftLeg  37.4718 5.34253 3.5594
LeftFoot  -9.06889 -0.0809901 -0.859676
LeftToes  -49.0388 2.40056e-006 -7.68412e-008
